<svg id="Layer_1" data-name="Layer 1" xmlns="http://www.w3.org/2000/svg" viewBox="0 0 674 239.15"><defs><style>.cls-1{fill:#f58921;}.cls-2{fill:#0a62ae;}</style></defs><path class="cls-1" d="M50.47,157.09a53.56,53.56,0,0,1-21-19.94,54.91,54.91,0,0,1-7.65-28.82,54.93,54.93,0,0,1,7.65-28.82,53.61,53.61,0,0,1,21-19.93,62.46,62.46,0,0,1,30.06-7.19,63,63,0,0,1,25.41,5A50.92,50.92,0,0,1,125,71.56L109,86.39Q98,73.72,81.76,73.72a36.13,36.13,0,0,0-17.92,4.4A31.31,31.31,0,0,0,51.55,90.41a36.16,36.16,0,0,0-4.4,17.92,36.2,36.2,0,0,0,4.4,17.93,31.28,31.28,0,0,0,12.29,12.28A36,36,0,0,0,81.76,143Q98,143,109,130.12L125,145a50.18,50.18,0,0,1-19.16,14.37,63.76,63.76,0,0,1-25.5,4.94A62.13,62.13,0,0,1,50.47,157.09Z"/><path class="cls-2" d="M264.87,81.14H286.2V99.68H265.49v62.74H241.38V99.68H228.56V81.14h12.82V77.43q0-14.22,8.43-22.56t23.71-8.35a44.36,44.36,0,0,1,10.28,1.16A24.87,24.87,0,0,1,291.91,51l-6.33,17.47a16.48,16.48,0,0,0-9.74-2.94q-11,0-11,12Z"/><path class="cls-2" d="M313.16,158.17A40.79,40.79,0,0,1,296.86,143a41.9,41.9,0,0,1-5.87-22.1,41.9,41.9,0,0,1,5.87-22.1,40.79,40.79,0,0,1,16.3-15.22,53.23,53.23,0,0,1,47,0,41,41,0,0,1,16.23,15.22,42,42,0,0,1,5.87,22.1,42,42,0,0,1-5.87,22.1,41,41,0,0,1-16.23,15.22,53.23,53.23,0,0,1-47,0ZM352,137.62q5.94-6.27,5.95-16.77T352,104.08a20.08,20.08,0,0,0-15.22-6.25,20.34,20.34,0,0,0-15.3,6.25q-6,6.27-6,16.77t6,16.77a20.34,20.34,0,0,0,15.3,6.25A20.08,20.08,0,0,0,352,137.62Z"/><path class="cls-2" d="M433.07,81.14A43.28,43.28,0,0,1,450,78.05V100.3c-2.68-.21-4.48-.31-5.41-.31q-10.35,0-16.22,5.79t-5.87,17.39v39.25H398.38V79.28h23v11A26.82,26.82,0,0,1,433.07,81.14Z"/><path class="cls-2" d="M549.35,79.28v69.23q0,22.86-11.89,34t-34.77,11.13a86.81,86.81,0,0,1-22.87-2.94,50.06,50.06,0,0,1-17.93-8.49l9.58-17.31a39.47,39.47,0,0,0,13.29,6.88,53.23,53.23,0,0,0,16.07,2.55q12.53,0,18.47-5.64t6-17.08v-3.55Q515.82,158.4,499,158.4a44.09,44.09,0,0,1-20.94-5A38.33,38.33,0,0,1,463,139.24a39.61,39.61,0,0,1-5.56-21,39.6,39.6,0,0,1,5.56-21A38.33,38.33,0,0,1,478,83.07a44.09,44.09,0,0,1,20.94-5q18.07,0,27.5,11.89V79.28ZM519.45,133q6.1-5.64,6.11-14.76t-6.11-14.75q-6.11-5.64-15.68-5.64T488,103.47q-6.18,5.64-6.18,14.75T488,133q6.18,5.64,15.76,5.64T519.45,133Z"/><path class="cls-2" d="M652.73,127.65H589.84a19.6,19.6,0,0,0,8,12.21q6.35,4.47,15.77,4.48a31.89,31.89,0,0,0,11.51-1.93,28.1,28.1,0,0,0,9.35-6.11l12.82,13.91q-11.75,13.44-34.3,13.44-14.07,0-24.88-5.48A40.21,40.21,0,0,1,571.45,143a41.9,41.9,0,0,1-5.87-22.1,42.5,42.5,0,0,1,5.79-22,40.67,40.67,0,0,1,15.92-15.3A49.3,49.3,0,0,1,632,83.3a38.31,38.31,0,0,1,15.53,15.07q5.64,9.81,5.64,22.79Q653.19,121.63,652.73,127.65Zm-56.4-26.73a19.7,19.7,0,0,0-6.8,12.67h41a20,20,0,0,0-6.8-12.6,20.33,20.33,0,0,0-13.6-4.71A20.76,20.76,0,0,0,596.33,100.92Z"/><path class="cls-1" d="M167.87,93.44V83.07h8.3V78.18a53.86,53.86,0,0,0-23.47,5.43,41.81,41.81,0,0,0-17,15.1,40,40,0,0,0-6.13,21.92,40,40,0,0,0,6.13,21.92,41.74,41.74,0,0,0,17,15.1,53.87,53.87,0,0,0,23.47,5.44v-4.66h-8.3V148.06h8.3v-4.61a21.54,21.54,0,0,1-14.84-6.18Q155,131.06,155,120.63T161.33,104a21.55,21.55,0,0,1,14.84-6.19V93.44Z"/><path class="cls-2" d="M218.76,98.71a41.9,41.9,0,0,0-16.94-15.1,53.42,53.42,0,0,0-23.58-5.43v7H170v6.22h8.29v6.45A21.26,21.26,0,0,1,193.19,104q6.21,6.21,6.21,16.63t-6.21,16.64a21.3,21.3,0,0,1-14.95,6.19v6.68H170v6.22h8.29v6.73a53.29,53.29,0,0,0,23.58-5.44,41.83,41.83,0,0,0,16.94-15.1,40,40,0,0,0,6.13-21.92A40,40,0,0,0,218.76,98.71Z"/></svg>